<?xml version="1.0" standalone="no"?>
<!DOCTYPE svg PUBLIC "-//W3C//DTD SVG 20010904//EN"
 "http://www.w3.org/TR/2001/REC-SVG-20010904/DTD/svg10.dtd">
<svg version="1.0" xmlns="http://www.w3.org/2000/svg"
 width="238.000000pt" height="266.000000pt" viewBox="0 0 238.000000 266.000000"
 preserveAspectRatio="xMidYMid meet">

<g transform="translate(0.000000,266.000000) scale(0.100000,-0.100000)"
fill="#000000" stroke="none">
<path d="M0 1330 l0 -1330 1190 0 1190 0 0 1330 0 1330 -1190 0 -1190 0 0
-1330z m1491 945 c260 -45 450 -174 543 -370 49 -101 61 -163 60 -300 -1 -143
-20 -221 -89 -371 -58 -123 -80 -185 -100 -281 -18 -87 -12 -140 35 -295 17
-53 30 -111 30 -128 0 -51 -34 -96 -96 -126 -165 -81 -615 -4 -738 125 l-29
30 -38 -19 c-135 -69 -280 -89 -354 -47 -70 40 -125 159 -125 273 0 37 -8 65
-27 99 -20 37 -28 66 -31 125 l-4 77 -55 23 c-56 23 -93 65 -93 105 0 36 56
139 120 219 l62 79 -18 61 c-96 314 171 647 579 721 98 18 267 18 368 0z"/>
<path d="M1175 2180 c-200 -31 -355 -118 -462 -259 -86 -113 -106 -225 -63
-357 13 -41 20 -81 17 -95 -4 -13 -27 -49 -53 -79 -55 -66 -124 -168 -124
-185 0 -18 49 -36 101 -38 l44 -2 0 -106 c1 -93 4 -112 27 -160 17 -35 28 -78
32 -124 15 -182 63 -228 203 -190 143 39 318 139 490 281 107 87 133 104 158
102 36 -4 59 -41 44 -70 -12 -23 -121 -114 -258 -216 -58 -42 -106 -82 -108
-88 -5 -15 99 -60 193 -84 199 -51 414 -47 443 8 6 11 -3 56 -26 132 -66 220
-52 356 63 603 78 168 98 252 92 386 -6 129 -32 211 -93 297 -107 149 -307
240 -550 249 -60 2 -137 0 -170 -5z m249 -266 c9 -3 16 -17 16 -29 0 -19 -133
-419 -165 -497 -4 -10 -18 -18 -31 -18 -49 0 -46 23 38 269 95 282 100 291
142 275z m-283 -95 c10 -19 3 -29 -65 -98 l-76 -77 66 -64 c83 -82 91 -96 68
-121 -9 -10 -22 -19 -28 -19 -6 0 -54 42 -105 94 -79 79 -93 98 -88 118 9 33
169 188 195 188 12 0 26 -10 33 -21z m510 -66 c55 -53 89 -95 89 -107 0 -21
-175 -206 -194 -206 -13 0 -46 31 -46 43 0 5 34 44 75 86 l75 77 -75 74 c-77
77 -84 87 -63 108 25 25 53 10 139 -75z"/>
</g>
</svg>
