<?xml version="1.0" standalone="no"?>
<!DOCTYPE svg PUBLIC "-//W3C//DTD SVG 20010904//EN"
 "http://www.w3.org/TR/2001/REC-SVG-20010904/DTD/svg10.dtd">
<svg version="1.0" xmlns="http://www.w3.org/2000/svg"
 width="872.000000pt" height="426.000000pt" viewBox="0 0 872.000000 426.000000"
 preserveAspectRatio="xMidYMid meet">

<g transform="translate(0.000000,426.000000) scale(0.100000,-0.100000)"
fill="#000000" stroke="none">
<path d="M0 2130 l0 -2130 4360 0 4360 0 0 2130 0 2130 -4360 0 -4360 0 0
-2130z m2960 100 l0 -1160 -30 0 -30 0 0 1160 0 1160 30 0 30 0 0 -1160z
m-1209 945 c260 -45 450 -174 543 -370 49 -101 61 -163 60 -300 -1 -143 -20
-221 -89 -371 -58 -123 -80 -185 -100 -281 -18 -87 -12 -140 35 -295 17 -53
30 -111 30 -128 0 -51 -34 -96 -96 -126 -165 -81 -615 -4 -738 125 l-29 30
-38 -19 c-135 -69 -280 -89 -354 -47 -70 40 -125 159 -125 273 0 37 -8 65 -27
99 -20 37 -28 66 -31 125 l-4 77 -55 23 c-56 23 -93 65 -93 105 0 36 56 139
120 219 l62 79 -18 61 c-96 314 171 647 579 721 98 18 267 18 368 0z m1742
-371 l37 -7 0 -219 0 -220 37 7 c21 4 41 9 45 11 4 3 52 89 107 192 55 103
112 199 126 212 25 23 34 25 135 25 66 0 113 -4 120 -11 13 -13 -196 -413
-247 -474 l-33 -38 28 -10 c38 -13 99 -68 119 -106 9 -17 40 -102 69 -188 29
-87 66 -178 83 -203 30 -45 30 -46 11 -65 -37 -37 -83 -54 -145 -55 -109 0
-130 26 -206 254 -66 198 -86 223 -183 229 l-66 4 0 -235 0 -235 -22 -6 c-30
-8 -212 -8 -232 0 -14 6 -16 65 -16 569 l0 564 23 4 c36 7 169 7 210 1z m1362
-17 c120 -39 186 -112 207 -227 19 -101 -20 -201 -100 -255 l-34 -23 28 -15
c92 -48 164 -170 164 -277 -1 -169 -86 -276 -251 -315 -83 -19 -558 -22 -577
-3 -9 9 -12 148 -12 565 0 515 1 553 18 563 11 7 101 9 262 7 195 -3 255 -7
295 -20z m1008 12 c5 -5 357 -1105 357 -1113 0 -16 -115 -38 -166 -31 -86 10
-123 52 -159 183 l-18 62 -183 0 -183 0 -16 -57 c-9 -32 -25 -85 -35 -118
l-18 -60 -115 0 c-69 0 -120 4 -127 11 -7 7 44 175 172 567 l182 556 31 5 c35
5 274 1 278 -5z m780 2 c27 -6 39 -29 176 -346 81 -187 160 -373 176 -413 15
-39 30 -71 31 -69 2 2 -1 73 -6 158 -12 203 -12 545 0 590 6 19 22 46 36 60
22 21 37 24 115 27 l89 4 0 -570 0 -570 -64 -7 c-72 -8 -241 -3 -251 7 -8 8
-240 532 -307 693 l-50 120 6 -85 c4 -47 9 -229 13 -406 l6 -321 -24 -6 c-31
-8 -192 -9 -213 -1 -14 6 -16 65 -16 569 l0 564 28 4 c43 6 224 5 255 -2z"/>
<path d="M1435 3080 c-200 -31 -355 -118 -462 -259 -86 -113 -106 -225 -63
-357 13 -41 20 -81 17 -95 -4 -13 -27 -49 -53 -79 -55 -66 -124 -168 -124
-185 0 -18 49 -36 101 -38 l44 -2 0 -106 c1 -93 4 -112 27 -160 17 -35 28 -78
32 -124 15 -182 63 -228 203 -190 143 39 318 139 490 281 107 87 133 104 158
102 36 -4 59 -41 44 -70 -12 -23 -121 -114 -258 -216 -58 -42 -106 -82 -108
-88 -5 -15 99 -60 193 -84 199 -51 414 -47 443 8 6 11 -3 56 -26 132 -66 220
-52 356 63 603 78 168 98 252 92 386 -6 129 -32 211 -93 297 -107 149 -307
240 -550 249 -60 2 -137 0 -170 -5z m249 -266 c9 -3 16 -17 16 -29 0 -19 -133
-419 -165 -497 -4 -10 -18 -18 -31 -18 -49 0 -46 23 38 269 95 282 100 291
142 275z m-283 -95 c10 -19 3 -29 -65 -98 l-76 -77 66 -64 c83 -82 91 -96 68
-121 -9 -10 -22 -19 -28 -19 -6 0 -54 42 -105 94 -79 79 -93 98 -88 118 9 33
169 188 195 188 12 0 26 -10 33 -21z m510 -66 c55 -53 89 -95 89 -107 0 -21
-175 -206 -194 -206 -13 0 -46 31 -46 43 0 5 34 44 75 86 l75 77 -75 74 c-77
77 -84 87 -63 108 25 25 53 10 139 -75z"/>
<path d="M4550 2490 l0 -132 96 4 c93 3 96 4 124 35 36 40 45 86 28 137 -21
62 -53 79 -158 84 l-90 4 0 -132z"/>
<path d="M4550 2011 l0 -161 98 0 c79 0 103 4 130 20 71 43 92 133 51 218 -28
57 -64 72 -186 79 l-93 6 0 -162z"/>
<path d="M5671 2462 c-13 -53 -39 -150 -57 -215 -19 -65 -34 -120 -34 -123 0
-2 52 -4 115 -4 72 0 115 4 115 10 0 10 -110 423 -114 427 -1 1 -13 -41 -25
-95z"/>
</g>
</svg>
