<?xml version="1.0" standalone="no"?>
<!DOCTYPE svg PUBLIC "-//W3C//DTD SVG 20010904//EN"
 "http://www.w3.org/TR/2001/REC-SVG-20010904/DTD/svg10.dtd">
<svg version="1.0" xmlns="http://www.w3.org/2000/svg"
 width="710.000000pt" height="710.000000pt" viewBox="0 0 710.000000 710.000000"
 preserveAspectRatio="xMidYMid meet">
<metadata>
Created by potrace 1.14, written by Peter Selinger 2001-2017
</metadata>
<g transform="translate(0.000000,710.000000) scale(0.100000,-0.100000)"
fill="#000000" stroke="none">
<path d="M370 3550 l0 -3550 3180 0 3180 0 0 3550 0 3550 -3180 0 -3180 0 0
-3550z m3775 2550 c0 -1 11 -3 25 -4 40 -4 153 -18 178 -22 12 -2 32 -6 45 -8
12 -2 45 -9 72 -16 28 -6 61 -14 75 -16 47 -9 165 -45 270 -84 318 -115 583
-295 775 -525 28 -33 58 -68 68 -79 9 -11 17 -26 17 -33 0 -7 4 -13 8 -13 5 0
14 -10 20 -22 7 -13 23 -41 37 -63 24 -40 125 -240 125 -249 0 -3 5 -17 12
-33 6 -15 12 -30 13 -33 46 -148 42 -134 50 -175 3 -16 7 -39 10 -50 17 -80
25 -446 12 -610 -19 -245 -85 -462 -242 -800 -43 -93 -55 -119 -91 -201 -46
-105 -123 -334 -138 -410 -2 -10 -11 -48 -19 -84 -21 -89 -30 -163 -30 -240 0
-65 12 -189 19 -201 2 -4 6 -24 10 -45 3 -22 35 -140 71 -264 36 -124 66 -234
68 -245 1 -11 8 -39 14 -62 16 -58 16 -143 0 -190 -42 -130 -184 -240 -372
-289 -125 -33 -191 -39 -407 -39 -228 1 -348 12 -574 56 -198 39 -427 107
-560 168 -34 16 -68 31 -76 35 -8 3 -24 12 -35 18 -102 66 -149 101 -204 156
l-64 64 -96 -47 c-53 -25 -109 -53 -126 -60 -89 -42 -275 -97 -370 -110 -22
-3 -58 -8 -80 -12 -22 -3 -72 -5 -111 -5 -204 3 -321 64 -427 223 -21 29 -41
59 -47 66 -5 7 -10 16 -10 21 0 4 -9 28 -21 51 -27 56 -65 178 -73 229 -3 22
-8 51 -11 64 -3 12 -7 68 -10 123 -5 125 -13 154 -65 261 -73 154 -81 190 -95
454 -2 36 -4 72 -4 81 -1 9 -20 24 -43 34 -127 53 -212 100 -257 141 -28 26
-51 53 -51 60 0 8 -4 14 -8 14 -14 0 -35 71 -34 114 3 110 155 375 377 655 83
105 105 139 100 155 -4 12 -8 30 -10 41 -2 11 -13 49 -25 85 -12 36 -24 76
-26 90 -3 14 -7 32 -9 40 -29 96 -26 360 6 500 6 25 12 52 14 60 16 76 111
292 159 363 14 21 26 40 26 43 0 3 6 12 13 19 6 8 23 30 37 50 110 159 350
374 551 492 206 121 487 232 680 267 13 2 24 5 24 6 0 1 11 3 25 5 14 2 52 8
85 14 33 6 94 13 135 16 41 3 76 7 77 9 4 4 518 0 518 -4z"/>
<path d="M3717 5834 c-1 -1 -47 -4 -102 -7 -55 -3 -112 -8 -128 -11 -15 -3
-53 -10 -85 -16 -31 -5 -88 -19 -127 -31 -38 -11 -80 -22 -92 -25 -90 -18
-324 -123 -451 -202 -125 -78 -197 -135 -307 -246 -94 -95 -225 -261 -225
-285 0 -6 -3 -11 -8 -11 -4 0 -13 -15 -21 -32 -8 -18 -19 -39 -25 -47 -13 -17
-60 -143 -71 -191 -23 -106 -27 -153 -22 -253 3 -62 8 -123 11 -137 18 -82 30
-127 37 -141 4 -9 10 -27 13 -40 3 -13 12 -53 21 -88 23 -96 22 -153 -6 -198
-27 -45 -138 -194 -155 -208 -19 -16 -154 -204 -154 -214 0 -5 -4 -11 -9 -13
-13 -5 -109 -160 -122 -197 -14 -39 -2 -56 58 -83 67 -30 147 -43 293 -47 l26
-1 1 -217 c3 -294 8 -339 50 -438 44 -104 91 -248 97 -300 11 -91 15 -129 22
-185 22 -192 64 -304 139 -376 55 -51 123 -70 227 -61 89 8 102 10 203 41 328
100 673 285 1045 561 93 69 113 84 150 116 10 8 31 24 46 35 14 10 34 26 43
35 9 8 48 39 86 69 39 30 72 57 75 60 11 13 138 100 145 100 5 0 16 7 24 15
19 16 75 22 111 11 38 -12 89 -66 96 -101 10 -57 -26 -112 -142 -212 -79 -68
-128 -109 -194 -162 -92 -75 -67 -56 -240 -186 -80 -60 -147 -112 -150 -115
-3 -3 -27 -22 -54 -41 -28 -18 -57 -41 -66 -49 -9 -8 -42 -35 -73 -60 -63 -51
-73 -66 -55 -87 14 -18 207 -113 228 -113 9 0 20 -4 26 -9 9 -8 192 -68 231
-75 11 -2 48 -11 84 -20 35 -8 75 -18 89 -20 14 -3 36 -7 50 -10 53 -12 239
-36 330 -42 268 -20 470 -1 582 55 67 34 81 67 62 147 -7 30 -10 54 -8 54 3 0
0 9 -6 19 -5 11 -12 36 -16 56 -3 20 -13 59 -23 88 -10 29 -19 57 -20 62 -1 6
-8 33 -16 60 -14 47 -40 158 -50 215 -46 247 -38 522 20 724 8 27 12 52 9 57
-3 5 0 9 5 9 6 0 11 9 11 20 0 10 4 29 9 42 11 26 21 57 20 61 -2 7 124 308
179 427 148 322 206 508 228 730 13 128 8 341 -12 470 -3 19 -7 49 -9 66 -16
127 -116 393 -171 455 -8 8 -14 21 -14 27 0 7 -4 12 -10 12 -5 0 -10 7 -10 15
0 7 -6 18 -13 22 -7 4 -21 22 -31 38 -35 56 -211 220 -305 284 -115 78 -266
157 -384 199 -89 32 -240 77 -290 86 -15 2 -35 7 -45 10 -9 3 -33 8 -52 10
-71 10 -126 18 -150 22 -61 10 -453 26 -463 18z m472 -739 c17 -15 29 -35 29
-48 -1 -24 -38 -161 -64 -236 -9 -25 -17 -53 -19 -61 -2 -8 -55 -170 -119
-360 -64 -190 -118 -352 -121 -360 -12 -46 -107 -300 -121 -326 -19 -35 -53
-50 -106 -46 -29 2 -39 9 -51 33 -15 31 -14 42 19 191 3 15 4 29 2 31 -2 2 2
10 8 18 10 12 15 28 30 84 1 6 9 29 18 53 8 23 13 42 9 42 -3 0 -1 6 4 13 8
10 48 123 58 162 1 6 5 17 8 25 4 8 29 80 56 160 27 80 63 186 81 235 17 50
33 97 35 105 2 8 4 15 5 15 1 0 3 7 5 15 5 21 68 169 89 208 40 76 90 92 145
47z m-808 -202 c15 -9 33 -30 40 -45 21 -50 15 -58 -221 -300 -80 -82 -146
-153 -148 -157 -2 -5 69 -80 158 -167 170 -168 223 -235 217 -278 -6 -45 -98
-123 -116 -99 -3 4 -35 33 -71 63 -95 80 -366 356 -400 409 -41 62 -39 91 14
160 40 52 204 222 287 297 65 59 172 134 191 134 11 0 33 -8 49 -17z m1142 0
c72 -37 120 -77 289 -245 116 -116 208 -228 208 -253 0 -15 -55 -90 -131 -178
-71 -83 -305 -316 -351 -351 l-37 -28 -35 22 c-41 25 -86 75 -86 96 0 18 100
131 268 303 l131 135 -162 161 c-261 260 -268 273 -191 334 32 25 55 26 97 4z"/>
</g>
</svg>
